<?xml version="1.0" encoding="UTF-8"?>
<svg id="Calque_2" data-name="Calque 2" xmlns="http://www.w3.org/2000/svg" xmlns:xlink="http://www.w3.org/1999/xlink" viewBox="0 0 336.83 336.84">
  <defs>
    <style>
      .cls-1 {
        fill: none;
      }

      .cls-2 {
        clip-path: url(#clippath);
      }

      .cls-3 {
        fill: #fff;
      }

      .cls-4 {
        fill: url(#Dégradé_sans_nom_48);
      }
    </style>
    <clipPath id="clippath">
      <path class="cls-1" d="M72.8,237.51l-37.69,33.83C13.1,242.88,0,207.18,0,168.42c0-4.14,.15-8.25,.44-12.33,.02-.25,.03-.5,.06-.74,1.1-14.39,4.02-28.29,8.52-41.45,.2-.58,.4-1.15,.6-1.72C22.78,75.03,48.61,43.87,81.91,23.89l33.8,170.89,.44,3.83-43.32,38.89s-.01,0-.02,.01ZM168.42,0c-18.92,0-37.12,3.13-54.09,8.88l107.01,149.9,66.68-11.32s0,0,.01,0c.03,0,.06,0,.09-.01,0,0,0,0,0,0,.04,0,.07,0,.11,0,0,0,0,0,0,0s0,0,0,0c0,0,.02,0,.03,0,.04,0,.07,0,.11,0,.03,0,.05,0,.08,.01,.02,0,.04,0,.05,.01,.03,0,.05,.01,.08,.02,.02,0,.04,.01,.05,.02,.02,0,.04,.02,.07,.03,.02,0,.04,.02,.07,.03,.02,0,.03,.02,.04,.02,.03,.02,.05,.03,.08,.05,0,0,.02,.01,.03,.02,.03,.02,.06,.04,.08,.07,0,0,.01,.01,.02,.02,.02,.02,.05,.05,.07,.07,0,.01,.02,.02,.03,.03,0,.01,.02,.02,.02,.03l21.69,29.94c.46,.63-.11,1.4-.9,1.4-.1,0-.19-.01-.3-.03l-37.94-8.94-23.88,26.73c-.14,.16-.32,.26-.52,.32,0,0,0,0-.01,0l-123.91,35.41-82.03,46.24c30.88,35.47,76.36,57.9,127.08,57.9,73.35,0,135.75-46.89,158.85-112.34,4.85-13.74,7.97-28.3,9.09-43.41,.31-4.18,.47-8.41,.47-12.67C336.83,75.41,261.43,0,168.42,0Z"/>
    </clipPath>
    <linearGradient id="Dégradé_sans_nom_48" data-name="Dégradé sans nom 48" x1="0" y1="168.42" x2="336.83" y2="168.42" gradientUnits="userSpaceOnUse">
      <stop offset="0" stop-color="#e62c3c"/>
      <stop offset="1" stop-color="#bf2168"/>
    </linearGradient>
  </defs>
  <g id="Calque_1-2" data-name="Calque 1">
    <g>
      <path class="cls-3" d="M336.83,168.42c0,4.27-.16,8.49-.47,12.67-1.13,15.12-4.25,29.68-9.09,43.41-23.1,65.45-85.5,112.34-158.85,112.34C75.4,336.84,0,261.43,0,168.42,0,164.28,.15,160.16,.44,156.09c.02-.25,.03-.5,.06-.74,1.1-14.39,4.02-28.29,8.52-41.45,.2-.58,.4-1.15,.6-1.72C32.77,46.82,95.13,0,168.42,0,261.43,0,336.83,75.41,336.83,168.42Z"/>
      <g class="cls-2">
        <path class="cls-4" d="M336.83,168.42c0,4.27-.16,8.49-.47,12.67-1.13,15.12-4.25,29.68-9.09,43.41-23.1,65.45-85.5,112.34-158.85,112.34C75.4,336.84,0,261.43,0,168.42,0,164.28,.15,160.16,.44,156.09c.02-.25,.03-.5,.06-.74,1.1-14.39,4.02-28.29,8.52-41.45,.2-.58,.4-1.15,.6-1.72C32.77,46.82,95.13,0,168.42,0,261.43,0,336.83,75.41,336.83,168.42Z"/>
        <g>
          <path class="cls-3" d="M159.43,293.03l39.06-7.12c-4.31,12.21-15.96,20.96-29.65,20.96-17.36,0-31.43-14.07-31.43-31.43,0-.77,.03-1.54,.08-2.3,0-.05,0-.09,.01-.14h.04l35.35-6.41-19.05,19.05h0c-.15,.22-.29,.46-.4,.71-.86,1.86-.46,4.06,1,5.5,.69,.69,1.58,1.15,2.54,1.33h0c.25,.05,.51,.07,.77,.07,.28,0,.57-.03,.84-.08l.82-.14Z"/>
          <path class="cls-3" d="M200.28,275.45c0,.8-.03,1.59-.09,2.36l-33.89,6.18,18.36-18.18,.19-.19h0c1.1-1.14,1.58-2.74,1.3-4.29-.38-2.02-1.97-3.6-3.99-3.96-.46-.08-.92-.08-1.38,0l-1.19,.22-40.38,7.37c4.32-12.2,15.96-20.94,29.63-20.94,17.36,0,31.44,14.08,31.44,31.43Z"/>
        </g>
      </g>
    </g>
  </g>
</svg>